# xmcd
#
# Track frame offsets:
#	150
#	10110
#	24621
#	37646
#	53243
#	65929
#	79743
#	89985
#	100538
#	112640
#	123773
#	131801
#	146481
#	158256
#	168442
#	180444
#	191463
#	202154
#	218271
#	231263
#	247169
#	257473
#	276233
#	285416
#	297214
#
# Disc length: 4131 seconds
#
# Revision: 1
# Processed by: cddbd v1.5.2PL0 Copyright (c) Steve Scherf et al.
# Submitted via: audiograbber 1.82.01
#
DISCID=56102119
DTITLE=Various Artist - The ref-o-ree Records Story
DYEAR=2007
DGENRE=Soul
TTITLE0=Freddie Waters - Singing A New Song
TTITLE1=Freddie Waters - It's Almost Sundown
TTITLE2=Freddie Waters - I Love You I Love You
TTITLE3=Eddie Frierson - You Never Had It So Good
TTITLE4=Peggy Gaines - When The Boy That You Love (Is Loving You)
TTITLE5=Larry Birdsong - Digging Your Potatoes
TTITLE6=Larry Birdsong - Fairly Well
TTITLE7=Larry Birdsong - The Sea Sand
TTITLE8=Larry Birdsong - I'll Pick My Own Chicken
TTITLE9=Roscoe Shelton - What Is It Baby
TTITLE10=Roscoe Shelton - Worry
TTITLE11=Gene Allison - It's Almost Sundown
TTITLE12=Gene Allison - I Understand
TTITLE13=The Avons - Tell Me Baby (Who Would I Be)
TTITLE14=Thomas Henry - Is It Love Or An Imitation
TTITLE15=Thomas Henry - You Got To Have A Thing
TTITLE16=Rufus Hunter - Hold On
TTITLE17=Rufus Hunter - Clean With Your Dirty Work
TTITLE18=Rufus Hunter - Things Are Never As Bad As They Seem
TTITLE19=The Tempo Rhythms - Oriental Soul
TTITLE20=The Tempo Rhythms - Candy
TTITLE21=Don Whitehead - The Funky Preacher
TTITLE22=The Precious Three - I Need A Man
TTITLE23=Spice Of Life - Check Yourself Baby
TTITLE24=Little Rock Brotherhood - The People's Choice
EXTD=
EXTT0=
EXTT1=
EXTT2=
EXTT3=
EXTT4=
EXTT5=
EXTT6=
EXTT7=
EXTT8=
EXTT9=
EXTT10=alternate
EXTT11=
EXTT12=
EXTT13=
EXTT14=
EXTT15=
EXTT16=
EXTT17=
EXTT18=alternate
EXTT19=
EXTT20=
EXTT21=
EXTT22=
EXTT23=
EXTT24=
PLAYORDER=
